<?xml version="1.0" standalone="no"?>
<!DOCTYPE svg PUBLIC "-//W3C//DTD SVG 20010904//EN"
 "http://www.w3.org/TR/2001/REC-SVG-20010904/DTD/svg10.dtd">
<svg version="1.0" xmlns="http://www.w3.org/2000/svg"
 width="300.000000pt" height="321.000000pt" viewBox="0 0 300.000000 321.000000"
 preserveAspectRatio="xMidYMid meet">

<g transform="translate(0.000000,321.000000) scale(0.100000,-0.100000)"
fill="#000000" stroke="none">
<path d="M1601 3139 c-310 -61 -571 -307 -650 -614 l-18 -70 -74 -11 c-289
-47 -513 -254 -575 -532 -24 -108 -15 -273 19 -367 42 -114 86 -185 161 -260
64 -65 190 -154 202 -143 2 3 -20 18 -48 33 -64 34 -169 138 -200 197 -40 76
-66 146 -84 224 -14 66 -15 94 -6 198 11 126 44 252 82 314 27 44 17 41 -15
-5 -14 -21 -25 -33 -25 -26 0 18 69 114 119 166 94 98 240 173 362 186 l69 7
0 -100 c0 -109 17 -218 48 -306 21 -57 93 -193 117 -220 24 -26 4 -42 -34 -27
-30 11 -34 10 -52 -12 -10 -13 -19 -36 -19 -52 0 -18 -7 -32 -20 -39 -24 -13
-85 -4 -118 17 -33 21 -38 10 -18 -42 20 -52 83 -110 135 -125 107 -30 220 9
270 91 l18 29 34 -26 c47 -35 153 -88 219 -108 30 -10 62 -20 70 -23 8 -3 42
-15 75 -27 46 -16 61 -27 66 -46 5 -16 7 -19 8 -7 1 15 6 14 44 -9 90 -56 88
-51 87 -209 -2 -202 -34 -345 -120 -530 -79 -171 -251 -390 -370 -472 -52 -35
-124 -73 -140 -73 -25 0 -1 25 128 133 199 167 245 216 250 269 9 105 8 113
-15 116 -16 2 -28 -7 -48 -42 -36 -62 -65 -85 -36 -28 30 59 12 52 -24 -10
-38 -65 -142 -204 -213 -285 -73 -85 -182 -151 -182 -111 0 7 18 49 40 93 77
155 107 344 75 464 -45 171 -194 324 -358 369 -21 6 -35 6 -32 1 4 -5 14 -9
24 -9 10 0 51 -16 91 -36 179 -90 292 -286 276 -479 -10 -129 -68 -294 -138
-391 -34 -48 -30 -69 18 -84 45 -15 102 -5 182 31 82 37 139 80 230 171 235
237 367 549 388 914 l7 111 27 -31 c116 -133 164 -335 125 -524 -30 -150 -89
-298 -149 -372 -41 -52 -44 -70 -15 -96 17 -15 36 -19 93 -19 124 1 253 67
402 208 256 242 420 552 491 932 21 112 23 415 4 525 -34 199 -81 341 -167
510 -85 165 -176 292 -304 420 -202 203 -382 281 -637 279 -59 -1 -128 -5
-152 -10z m-153 -193 c23 -30 42 -57 42 -59 0 -8 -71 66 -87 90 -30 45 3 22
45 -31z m307 -52 c-218 -35 -266 -56 -406 -177 -44 -37 -79 -63 -79 -58 0 6
19 34 43 63 46 57 123 114 166 124 14 4 31 13 37 20 20 25 115 43 224 42 l105
0 -90 -14z m478 -175 c72 -54 139 -129 196 -217 18 -28 37 -52 41 -52 17 0 90
-161 125 -275 38 -126 58 -275 36 -275 -6 0 -11 9 -11 19 0 34 -80 283 -116
359 -21 46 -38 72 -46 70 -7 -3 -13 -11 -13 -19 0 -9 -10 -13 -28 -11 -18 2
-27 -2 -27 -11 0 -19 -49 -41 -55 -24 -2 6 -18 59 -35 117 -50 168 -70 221
-111 298 -21 39 -35 72 -31 72 4 0 38 -23 75 -51z m-918 -170 c19 -35 7 -59
-29 -59 -12 0 -27 -5 -34 -12 -16 -16 -16 11 0 63 14 48 41 52 63 8z m798 -69
c30 -24 65 -122 38 -105 -5 3 -12 1 -16 -5 -3 -5 -10 -10 -14 -10 -10 0 -37
70 -33 87 2 7 -2 22 -8 33 -14 26 0 26 33 0z m-433 -10 c-24 -15 -37 -11 -16
5 11 8 22 12 25 9 3 -3 -1 -9 -9 -14z m-216 -31 c31 -24 26 -39 -13 -39 -24 0
-29 5 -33 30 -5 36 8 39 46 9z m166 -50 c-17 -43 -18 -52 -6 -64 17 -17 26 -9
59 57 12 24 29 44 38 46 18 3 89 -62 89 -82 0 -8 -7 -27 -15 -42 -8 -16 -15
-39 -15 -51 0 -28 -32 -38 -96 -30 -90 10 -115 69 -73 168 28 65 44 64 19 -2z
m-142 -22 c10 -12 18 -39 43 -147 5 -20 24 -61 43 -93 l34 -57 -38 23 c-34 19
-43 20 -71 10 -18 -7 -36 -10 -41 -7 -30 19 -82 190 -71 237 3 12 13 28 21 35
21 16 67 16 80 -1z m1032 -246 c12 -37 8 -61 -10 -61 -5 0 -11 14 -14 30 -3
17 -9 45 -12 62 -6 28 -4 31 8 20 8 -6 21 -29 28 -51z m-1092 -109 c42 -22
109 -49 147 -60 39 -12 103 -31 144 -43 l74 -23 -38 -33 -39 -33 29 -30 28
-29 -32 4 c-17 2 -36 7 -42 11 -6 3 -34 12 -63 18 -156 37 -346 209 -391 355
-5 18 9 8 49 -36 39 -42 80 -73 134 -101z m1055 -987 c-9 -19 -20 -35 -25 -35
-12 0 -10 9 9 41 24 41 36 36 16 -6z m-184 -105 c1 -56 -13 -84 -23 -46 -9 37
4 138 15 111 4 -11 8 -40 8 -65z m81 -72 c-71 -106 -98 -138 -117 -138 -16 0
-16 3 -2 32 5 13 25 34 44 48 18 14 48 50 66 80 40 68 62 95 67 81 2 -5 -24
-52 -58 -103z"/>
<path d="M492 1978 c-19 -24 -50 -133 -48 -172 2 -73 23 -51 34 36 5 46 14 98
20 116 11 35 10 39 -6 20z"/>
<path d="M481 1734 c0 -11 3 -14 6 -6 3 7 2 16 -1 19 -3 4 -6 -2 -5 -13z"/>
<path d="M426 1482 c32 -56 151 -158 127 -109 -3 6 -37 41 -76 77 -58 54 -67
59 -51 32z"/>
<path d="M550 1469 c0 -10 4 -20 10 -24 5 -3 7 -11 5 -18 -9 -24 11 -38 49
-35 l37 3 -50 46 c-38 34 -51 41 -51 28z"/>
<path d="M700 1126 c14 -8 41 -16 60 -20 24 -4 18 0 -20 14 -64 23 -75 24 -40
6z"/>
</g>
</svg>
